# xmcd
#
# Track frame offsets:
#	150
#	20087
#	40114
#	55431
#	80172
#	100852
#	127436
#
# Disc length: 1951 seconds
#
# Revision: 0
# Processed by: cddbd v1.5PL3 Copyright (c) Steve Scherf et al.
# Submitted via: dBpowerAMP V4.0
#
DISCID=64079d07
DTITLE=Wendy Rich - Self Destruction Blues
DYEAR=1900
DGENRE=Blues
TTITLE0=Workin Woman Blues
TTITLE1=Here I Am
TTITLE2=My Baby's Gonna Be Mad
TTITLE3=Self Destruction Blues
TTITLE4=Call It Inspiration
TTITLE5=Feels Like I'm Drowning
TTITLE6=DATA
EXTD=
EXTT0=
EXTT1=
EXTT2=
EXTT3=
EXTT4=
EXTT5=
EXTT6=
PLAYORDER=
